<svg width="32" height="32" viewBox="0 0 32 32" fill="none" xmlns="http://www.w3.org/2000/svg">
<ellipse cx="19.5342" cy="6.00598" rx="1.606" ry="2.67549" transform="rotate(-15.4059 19.5342 6.00598)" fill="black"/>
<path d="M20.8631 11.0135C23.8339 13.8943 25.0267 10.826 25.2518 8.93168C25.2518 8.93168 25.4769 8.81914 25.4769 9.213C25.4769 9.60686 25.5894 11.4074 25.4769 12.0263C24.5316 16.8876 22.2322 15.4022 21.2007 14.0518C20.3004 12.9453 18.3536 10.6309 17.7685 10.2258C13.9424 7.34498 12.9109 11.5762 12.8171 14.0518C12.7608 14.0518 12.604 14.0334 12.592 13.9956C12.2793 13.0087 12.1757 11.727 12.367 10.7322C13.4923 2.855 17.1496 7.41251 20.8631 11.0135Z" fill="black"/>
<path d="M21.3694 24.292C21.2344 26.8127 19.8878 28.1181 19.2313 28.4557C20.9193 18.9468 17.5434 17.5964 17.3746 17.5964C12.9859 21.6475 7.58435 19.7908 7.24675 19.6782C6.90916 19.5657 6.96543 19.5095 7.13422 19.3407C12.3669 19.2844 13.6048 17.9903 15.5741 15.4021C17.5434 12.8139 18.7249 14.2205 19.794 15.6271C21.0467 17.2755 21.5382 21.1412 21.3694 24.292Z" fill="black"/>
<style>
    @media (prefers-color-scheme:dark){:root{filter:invert(100%)}}
  </style>
</svg>
